<?xml version="1.0" standalone="no"?>
<!DOCTYPE svg PUBLIC "-//W3C//DTD SVG 20010904//EN"
 "http://www.w3.org/TR/2001/REC-SVG-20010904/DTD/svg10.dtd">
<svg version="1.0" xmlns="http://www.w3.org/2000/svg"
 width="400.000000pt" height="384.000000pt" viewBox="0 0 400.000000 384.000000"
 preserveAspectRatio="xMidYMid meet">

<g transform="translate(0.000000,384.000000) scale(0.100000,-0.100000)"
fill="#000000" stroke="none">
<path d="M5 1920 c0 -1059 1 -1492 2 -963 2 530 2 1396 0 1925 -1 530 -2 97
-2 -962z"/>
<path d="M3995 1920 c0 -1059 1 -1492 2 -963 2 530 2 1396 0 1925 -1 530 -2
97 -2 -962z"/>
<path d="M2090 2969 c-13 -6 -32 -17 -42 -26 -14 -13 -23 -13 -53 -3 -56 19
-146 9 -192 -21 -31 -21 -44 -24 -73 -17 -59 13 -133 -8 -182 -51 -41 -36 -48
-39 -119 -42 -100 -5 -190 -48 -251 -120 -24 -28 -54 -61 -68 -73 -126 -110
-169 -184 -177 -311 -4 -55 -1 -83 16 -130 12 -33 29 -85 37 -115 45 -160 164
-268 323 -293 63 -9 69 -12 89 -48 27 -47 92 -101 157 -131 41 -18 68 -22 150
-23 88 0 107 3 157 27 l58 27 29 -43 c37 -54 91 -101 145 -128 34 -16 58 -45
145 -174 l105 -154 30 20 c30 19 31 22 32 91 l0 71 38 13 c21 7 48 22 59 33
20 18 25 19 47 7 14 -8 50 -14 80 -15 106 0 196 66 225 164 10 34 18 43 46 51
48 14 105 51 128 83 10 15 35 65 56 112 l38 85 1 185 c1 177 0 188 -25 246
-33 78 -72 127 -137 170 -29 20 -58 48 -63 62 -38 102 -107 182 -191 224 -26
13 -65 44 -87 69 -71 82 -218 138 -316 122 -30 -5 -41 -1 -63 20 -46 44 -100
57 -152 36z"/>
</g>
</svg>
